<svg xmlns="http://www.w3.org/2000/svg" width="128" height="128" viewBox="0 0 128 128" fill="none"><path d="M115.662 123.505C116.471 124.948 115.957 126.774 114.513 127.583C113.07 128.392 111.244 127.877 110.435 126.434C110.029 125.708 109.543 124.921 108.95 123.96C104.746 117.141 95.9172 102.819 98.1477 92.1664C101.324 77.0004 114.328 65.0414 114.328 43.9534C114.328 20.6394 93.5692 6.00538 71.0157 6.00538C57.9817 6.00538 45.2912 12.1299 36.4272 21.5584C28.8557 29.6109 24.1057 40.2389 26.0092 50.1044C26.7507 53.9334 20.9542 64.4079 16.0797 73.2164L13.6797 77.6404C13.5102 78.2324 15.2572 78.5529 15.5277 78.6309C17.6632 79.2489 20.7592 80.1449 22.3167 80.4759C24.1092 80.8569 25.1882 82.7179 24.4387 84.6084C23.8802 86.1744 23.3022 87.3609 22.5742 88.7779C24.1542 89.1344 26.1162 89.4889 27.3497 89.5184C29.0002 89.5569 30.3062 90.9269 30.2677 92.5769C30.2292 94.2274 28.8597 95.5334 27.2092 95.4949C26.1662 95.4689 24.8552 95.3029 23.5232 95.0684C26.5067 97.2539 25.9927 100.127 25.3782 103.555C25.0927 105.15 24.7667 106.968 25.4117 108.676C27.0972 112.104 36.1412 113.027 40.9262 114.115C47.1607 115.532 55.5142 113.417 60.1507 123.786C60.8237 125.294 60.1467 127.062 58.6392 127.735C57.1307 128.408 55.3627 127.731 54.6902 126.223C51.7522 119.652 45.3602 121.258 39.6142 119.951C32.2657 118.28 23.9227 118.02 20.1722 111.601L20.1827 111.595C20.1232 111.493 20.0682 111.385 20.0202 111.273C16.9492 104.164 22.3137 100.342 17.6967 98.9044C15.1712 98.1184 14.8507 94.6819 17.1457 93.4209C15.5462 92.7509 14.8037 90.8924 15.5802 89.3204L17.5632 85.4294C15.4092 84.8294 12.3847 84.0649 11.1892 83.4134C7.98272 81.6659 6.68022 77.9384 8.50422 74.5904C12.0492 68.0834 20.5372 53.3534 20.1277 51.2294C17.8382 39.3669 23.1882 26.9019 32.0687 17.4569C42.0402 6.85038 56.3597 0.00488281 71.0157 0.00488281C96.8292 0.00488281 120.328 17.2709 120.328 43.9529C120.328 66.7304 106.931 79.4194 104.007 93.3849C102.261 101.72 110.238 114.658 114.036 120.819C114.765 122.001 115.361 122.968 115.662 123.505Z" fill="#3B4652"></path><path d="M47.1957 44.8217C47.6447 44.8972 47.9272 45.3522 47.9272 45.9827C47.9272 46.6142 47.6452 47.0692 47.1957 47.1437L40.9467 48.2297C40.4642 48.3057 40.0992 47.9017 40.0992 47.2197V44.7452C40.0992 44.0637 40.4642 43.6602 40.9467 43.7362L47.1957 44.8217ZM92.8157 44.8217C92.3677 44.8972 92.0842 45.3522 92.0842 45.9827C92.0842 46.6142 92.3672 47.0692 92.8157 47.1437L99.0647 48.2297C99.5472 48.3057 99.9122 47.9017 99.9122 47.2197V44.7452C99.9122 44.0637 99.5472 43.6602 99.0647 43.7362L92.8157 44.8217ZM71.1667 23.1727C71.0917 23.6217 70.6367 23.9042 70.0057 23.9042C69.3747 23.9042 68.9202 23.6222 68.8442 23.1727L67.7592 16.9242C67.6822 16.4417 68.0867 16.0762 68.7687 16.0762H71.2432C71.9242 16.0762 72.3287 16.4417 72.2527 16.9242L71.1667 23.1727ZM54.6977 29.0322C54.9612 29.4037 54.8402 29.9252 54.3942 30.3712C53.9467 30.8177 53.4262 30.9397 53.0552 30.6752L47.8687 27.0237C47.4747 26.7367 47.5017 26.1927 47.9837 25.7102L49.7327 23.9612C50.2152 23.4787 50.7597 23.4512 51.0462 23.8462L54.6977 29.0322ZM86.9562 61.2907C86.5852 61.0282 86.0647 61.1492 85.6172 61.5952C85.1707 62.0422 85.0497 62.5632 85.3132 62.9337L88.9652 68.1197C89.2517 68.5142 89.7957 68.4872 90.2782 68.0052L92.0277 66.2552C92.5102 65.7732 92.5367 65.2287 92.1422 64.9422L86.9562 61.2907ZM53.0552 61.2907C53.4262 61.0282 53.9477 61.1492 54.3942 61.5952C54.8407 62.0422 54.9622 62.5632 54.6977 62.9337L51.0462 68.1197C50.7597 68.5142 50.2152 68.4872 49.7327 68.0052L47.9837 66.2552C47.5012 65.7737 47.4742 65.2287 47.8687 64.9422L53.0552 61.2907ZM85.3132 29.0322C85.0502 29.4037 85.1712 29.9252 85.6172 30.3712C86.0647 30.8177 86.5852 30.9397 86.9562 30.6752L92.1422 27.0242C92.5362 26.7367 92.5097 26.1927 92.0277 25.7102L90.2782 23.9612C89.7957 23.4792 89.2517 23.4512 88.9652 23.8467L85.3132 29.0322ZM64.2232 65.9767H68.1567L68.9762 53.1102L61.6992 54.1757L72.6267 33.2477L70.4542 47.5037L76.9967 46.2017L71.8647 65.9767H75.7887V62.4682C75.7887 61.7102 76.1787 61.0607 76.8477 60.7037L77.9067 60.1392C80.1907 58.9202 82.2207 57.3432 83.6907 55.1922C85.5632 52.4527 86.2082 49.2592 86.2082 45.9817C86.2082 41.7982 83.9892 37.5792 81.0802 34.6702C78.1317 31.7222 74.2257 29.7807 70.0052 29.7807C65.7847 29.7807 61.8797 31.7232 58.9312 34.6707C56.0222 37.5792 53.8032 41.7982 53.8032 45.9817C53.8032 49.2592 54.4477 52.4522 56.3207 55.1922C57.7907 57.3432 59.8207 58.9202 62.1057 60.1392L63.1642 60.7037C63.8332 61.0607 64.2227 61.7107 64.2227 62.4682L64.2232 65.9767ZM75.3472 79.4527L76.8532 77.9172V76.5747L63.6887 78.4592L64.6677 79.4577C72.5057 79.4577 67.5922 79.4527 75.3472 79.4527ZM76.8532 74.2997V71.5987L63.1607 73.5587L63.1627 76.2592L76.8532 74.2997ZM76.8532 69.3227V68.2327H63.1572L63.1587 71.2827L76.8532 69.3227ZM74.4262 83.4577C74.3557 85.2637 72.8687 86.7057 71.0447 86.7057H68.9657C67.1422 86.7057 65.6547 85.2637 65.5842 83.4577H63.7407C63.1872 83.4577 62.6917 83.2087 62.3607 82.8172L59.6782 80.0832C59.3342 79.7327 59.1627 79.2767 59.1627 78.8217H59.1572V66.5717C59.1572 65.8392 59.5952 65.2072 60.2232 64.9247V63.6687C57.3142 62.1172 54.8377 60.1112 53.0182 57.4497C50.9842 54.4732 49.8032 50.7352 49.8032 45.9822C49.8032 40.9757 52.2247 35.7207 56.1032 31.8427C59.7122 28.2342 64.6017 25.7812 70.0052 25.7812C75.4087 25.7812 80.2992 28.2332 83.9087 31.8427C87.7872 35.7207 90.2087 40.9762 90.2087 45.9822C90.2087 50.7352 89.0282 54.4727 86.9932 57.4497C85.1737 60.1112 82.6967 62.1182 79.7887 63.6687V64.9252C80.4162 65.2072 80.8537 65.8392 80.8537 66.5717V78.8217C80.8537 79.3622 80.6157 79.8472 80.2392 80.1777L77.5552 82.9157C77.2032 83.2742 76.7367 83.4527 76.2717 83.4527V83.4582H74.4262V83.4577Z" fill="#F97E20"></path></svg>