<svg xmlns="http://www.w3.org/2000/svg" width="128" height="128" viewBox="0 0 128 128" fill="none"><g clip-path="url(#clip0_235_1540)"><path d="M95.4895 23.1204C85.435 15.1084 72.6995 10.3184 58.8455 10.3184C42.5965 10.3184 27.8845 16.9064 17.2355 27.5539C6.587 38.2034 0 52.9159 0 69.1639C0 85.4129 6.587 100.125 17.236 110.774C27.885 121.423 42.597 128.01 58.846 128.01C75.0935 128.01 89.806 121.423 100.455 110.774C111.104 100.125 117.692 85.4129 117.692 69.1639C117.692 55.3199 112.909 42.5909 104.907 32.5399L96.314 41.1324C102.169 48.9459 105.636 58.6499 105.636 69.1639C105.636 82.0854 100.399 93.7839 91.9335 102.251C83.4665 110.718 71.7675 115.954 58.8465 115.954C45.9245 115.954 34.227 110.718 25.7595 102.251C17.2925 93.7839 12.056 82.0859 12.056 69.1639C12.056 56.2419 17.2915 44.5444 25.7585 36.0769C34.226 27.6104 45.924 22.3734 58.8455 22.3734C69.369 22.3734 79.081 25.8479 86.8985 31.7119L95.4895 23.1204ZM79.3855 39.2234C73.5435 35.2069 66.4685 32.8559 58.845 32.8559C48.819 32.8559 39.742 36.9209 33.172 43.4904C26.6015 50.0614 22.5365 59.1394 22.5365 69.1644C22.5365 79.1904 26.6015 88.2674 33.172 94.8379C39.742 101.408 48.819 105.473 58.845 105.473C68.8695 105.473 77.948 101.408 84.518 94.8379C91.0885 88.2674 95.153 79.1904 95.153 69.1644C95.153 61.5504 92.8085 54.4829 88.8015 48.6454L80.0555 57.3904C81.994 60.8774 83.0985 64.8909 83.0985 69.1644C83.0985 75.8629 80.3835 81.9264 75.996 86.3149C71.6075 90.7024 65.543 93.4179 58.8455 93.4179C52.1475 93.4179 46.0835 90.7024 41.6955 86.3149C37.307 81.9269 34.5925 75.8634 34.5925 69.1644C34.5925 62.4664 37.307 56.4024 41.6955 52.0139C46.083 47.6259 52.1475 44.9114 58.8455 44.9114C63.1275 44.9114 67.1505 46.0214 70.6415 47.9679L79.3855 39.2234ZM58.8455 82.7064C66.3245 82.7064 72.3875 76.6424 72.3875 69.1639C72.3875 67.9109 72.2175 66.6984 71.898 65.5469C69.1255 68.3209 66.308 71.1384 63.5635 73.8824C60.958 76.4884 56.733 76.4884 54.127 73.8824C51.521 71.2759 51.521 67.0514 54.127 64.4459C56.904 61.6694 59.7105 58.8989 62.4915 56.1184C61.332 55.7949 60.1085 55.6219 58.8455 55.6219C51.3665 55.6219 45.303 61.6849 45.303 69.1644C45.303 76.6429 51.3665 82.7064 58.8455 82.7064Z" fill="#3B4652"></path><path d="M60.658 70.9766L103.905 28.0331L115.978 27.9741C116.31 27.9721 116.598 27.8561 116.829 27.6181L127.67 16.4331C128.425 15.6546 127.792 14.5081 126.714 14.5086L117.138 14.5131L117.951 13.7011C120.334 11.3186 116.71 7.69664 114.327 10.0786L113.512 10.7596L113.502 1.14714C113.501 0.0691413 112.299 -0.397859 111.549 0.365641L100.865 11.2466C100.633 11.4826 100.511 11.7661 100.511 12.0971V24.0901C86.0855 38.5131 71.458 52.9271 57.0335 67.3506C54.6485 69.7356 58.2735 73.3611 60.658 70.9766Z" fill="#F97E20"></path></g><defs><clipPath id="clip0_235_1540"><rect width="128" height="128" fill="white"></rect></clipPath></defs></svg>