<svg xmlns="http://www.w3.org/2000/svg" width="128" height="128" viewBox="0 0 128 128" fill="none"><g clip-path="url(#clip0_235_1518)"><path d="M29.9485 47.4395C24.6885 47.7195 23.829 55.648 29.4975 55.673L41.5695 55.7255L47.3835 56.01C48.2415 56.052 49.048 56.0505 49.808 56.013L49.496 59.4995C49.496 60.4945 48.7695 61.32 47.8185 61.4735V64.525C55.6065 66.4895 58.369 73.1155 57.9975 80.705L57.713 86.5195L57.6605 98.5055C57.6485 101.239 56.3215 102.986 54.5195 103.832C53.7285 104.203 52.8555 104.382 51.975 104.377C51.1155 104.372 50.2505 104.199 49.4515 103.866C49.1655 103.746 48.8865 103.606 48.617 103.448L48.473 112.806C48.43 115.601 46.9805 117.422 45.12 118.261C43.522 118.981 41.678 118.935 40.1135 118.149C39.9 121.329 37.5185 123.706 34.3425 123.698C32.04 123.691 29.975 122.368 29.1225 120.197C28.412 120.486 27.649 120.626 26.8885 120.622C26.081 120.618 25.273 120.449 24.5305 120.118C22.6375 119.276 21.162 117.439 21.15 114.649L21.1465 113.831C19.812 114.306 18.306 114.253 17.011 113.677C15.229 112.884 13.829 111.157 13.7635 108.505L13.381 92.9615C13.3805 92.9305 13.3805 92.8995 13.381 92.8685L13.373 76.548C13.371 72.3695 14.878 68.4495 17.6855 65.357L17.6845 61.499H17.4955C16.391 61.499 15.4955 60.6035 15.4955 59.499V46.49L29.909 46.711L29.9485 47.4395ZM28.68 90.8825C28.68 89.7805 29.5735 88.887 30.676 88.887C31.7785 88.887 32.672 89.7805 32.672 90.8825L32.68 117.714C32.68 118.775 33.203 119.71 34.3425 119.713C35.51 119.716 36.1305 118.811 36.146 117.69L36.5305 90.089C36.545 89.01 37.4065 88.128 38.4915 88.111C39.5915 88.094 40.4945 88.972 40.5145 90.072L40.9345 112.751C40.9555 113.874 41.5615 114.773 42.733 114.773C43.8975 114.773 44.4715 113.866 44.488 112.759L44.876 87.5L44.8205 86.4575C44.8165 86.375 44.8175 86.2935 44.823 86.2135L44.9845 80.427C45.015 79.327 45.931 78.459 47.0315 78.4895C48.1315 78.5195 48.986 79.436 48.969 80.5365L48.864 87.353L49.427 97.9455C49.4865 99.071 50.165 99.837 50.983 100.178C51.319 100.318 51.6645 100.392 51.991 100.394C52.296 100.395 52.5855 100.34 52.8325 100.224C53.3155 99.9965 53.6725 99.439 53.6765 98.4905L53.7285 86.5105C53.726 86.452 53.726 86.3925 53.729 86.333L54.0135 80.5185C54.318 74.292 52.2955 69.161 45.6435 68.1575C44.621 68.0685 43.8185 67.2105 43.8185 66.165V61.5005H21.669L21.6705 65.9915C21.7195 66.5595 21.527 67.1445 21.092 67.579C18.658 70.013 17.3745 73.1075 17.373 76.549L17.365 92.8685L17.7475 108.412C17.771 109.367 18.267 110.174 19.281 110.17C20.2755 110.166 20.7695 109.378 20.7825 108.436L21.045 90.076C21.0605 88.9905 21.9395 88.116 23.029 88.112C24.129 88.1075 25.0245 88.996 25.029 90.0965L25.1335 114.633C25.138 115.737 25.7555 116.631 26.903 116.638C28.07 116.646 28.659 115.742 28.6745 114.63L28.68 90.8825ZM15.496 19.0955V3.6395C15.496 1.8795 23.996 0 32.496 0C40.996 0 54.496 1.88 54.496 3.6395L53.4335 15.5075C52.7845 15.422 52.1215 15.378 51.4465 15.378H35.0805L19.537 15.761C17.1495 15.8195 15.9225 17.4315 15.839 19.0955H15.496Z" fill="#3B4652"></path><path d="M80.5603 29.948C80.2808 24.688 72.3518 23.8285 72.3268 29.497L72.2743 41.569L71.9903 47.3835C71.9483 48.2416 71.9493 49.048 71.9868 49.808L68.4998 49.4955C67.5058 49.4955 66.6798 48.7691 66.5263 47.8181H63.4753C61.5108 55.6055 54.8848 58.3685 47.2948 57.9971L41.4808 57.7126L29.4948 57.6595C26.7618 57.6475 25.0143 56.32 24.1678 54.5186C23.7963 53.7281 23.6183 52.855 23.6233 51.9745C23.6283 51.1145 23.8023 50.2495 24.1353 49.4506C24.2548 49.1651 24.3938 48.8856 24.5523 48.6161L15.1943 48.472C12.3993 48.4291 10.5783 46.98 9.73876 45.1195C9.01826 43.5215 9.06526 41.6775 9.85026 40.113C6.67076 39.8995 4.29326 37.518 4.30276 34.3425C4.30926 32.04 5.63226 29.9755 7.80326 29.1225C7.51476 28.412 7.37326 27.649 7.37776 26.8885C7.38276 26.081 7.55126 25.2735 7.88126 24.5305C8.72326 22.6375 10.5608 21.162 13.3513 21.15L14.1693 21.1465C13.6943 19.8115 13.7473 18.306 14.3233 17.011C15.1153 15.229 16.8428 13.829 19.4948 13.7635L35.0383 13.381C35.0693 13.38 35.1003 13.38 35.1308 13.381L51.4513 13.373C55.6303 13.371 59.5498 14.878 62.6423 17.686L66.4998 17.6845V17.4955C66.4998 16.391 67.3953 15.4955 68.4998 15.4955H81.5098L81.2888 29.9086L80.5603 29.948ZM37.1173 28.6795C38.2193 28.6795 39.1133 29.5731 39.1133 30.6756C39.1133 31.778 38.2193 32.6716 37.1173 32.6716L10.2858 32.6796C9.22426 32.68 8.28976 33.203 8.28676 34.342C8.28376 35.5095 9.18876 36.1301 10.3088 36.1451L37.9103 36.53C38.9898 36.5445 39.8713 37.4061 39.8883 38.4911C39.9053 39.5911 39.0273 40.494 37.9273 40.5145L15.2483 40.9346C14.1248 40.9551 13.2258 41.5616 13.2258 42.7331C13.2258 43.8976 14.1338 44.4715 15.2403 44.488L40.4998 44.876L41.5423 44.821C41.6248 44.8165 41.7063 44.8176 41.7863 44.8236L47.5733 44.9846C48.6733 45.0151 49.5413 45.9316 49.5108 47.0316C49.4803 48.1315 48.5643 48.9855 47.4638 48.9691L40.6468 48.8635L30.0548 49.4265C28.9293 49.486 28.1633 50.1645 27.8223 50.982C27.6823 51.318 27.6088 51.6636 27.6073 51.9901C27.6058 52.2951 27.6608 52.5845 27.7768 52.8316C28.0038 53.3151 28.5618 53.6715 29.5103 53.6755L41.4898 53.7276C41.5488 53.7251 41.6078 53.7251 41.6673 53.7281L47.4813 54.0126C53.7083 54.3166 58.8388 52.2946 59.8428 45.6426C59.9313 44.6201 60.7893 43.8181 61.8348 43.8181H66.4998V21.669L62.0093 21.6705C61.4413 21.72 60.8563 21.527 60.4218 21.0925C57.9878 18.6585 54.8938 17.375 51.4518 17.3735L35.1328 17.3655L19.5893 17.748C18.6343 17.7715 17.8273 18.268 17.8313 19.2815C17.8358 20.276 18.6238 20.77 19.5658 20.783L37.9248 21.046C39.0103 21.061 39.8848 21.94 39.8893 23.03C39.8933 24.13 39.0048 25.0255 37.9048 25.03L13.3668 25.1345C12.2633 25.1395 11.3688 25.7565 11.3618 26.904C11.3548 28.071 12.2583 28.6595 13.3703 28.6755L37.1173 28.6795ZM108.904 15.4955H124.36C126.12 15.4955 128 23.9955 128 32.4955C128 40.9955 126.12 54.4955 124.36 54.4955L112.492 53.433C112.578 52.784 112.622 52.1215 112.622 51.446L112.622 35.0801L112.239 19.5365C112.18 17.149 110.568 15.922 108.904 15.8385V15.4955Z" fill="#3B4652"></path><path d="M98.0514 80.5608C103.312 80.2813 104.171 72.3523 98.5025 72.3273L86.4304 72.2748L80.6159 71.9903C79.7579 71.9483 78.9514 71.9498 78.1914 71.9873L78.5035 68.5008C78.5035 67.5058 79.2299 66.6803 80.181 66.5268V63.4758C72.393 61.5108 69.6305 54.8848 70.0025 47.2953L70.2864 41.4813L70.3389 29.4948C70.3504 26.7618 71.678 25.0143 73.48 24.1683C74.2705 23.7968 75.1434 23.6183 76.0244 23.6233C76.8839 23.6283 77.7489 23.8018 78.5479 24.1348C78.8339 24.2543 79.1135 24.3938 79.383 24.5523L79.5264 15.1943C79.5694 12.3993 81.0184 10.5783 82.8789 9.73926C84.4769 9.01876 86.3209 9.06526 87.8854 9.85076C88.0994 6.67176 90.4805 4.29426 93.6565 4.30276C95.959 4.30976 98.0235 5.63226 98.8765 7.80376C99.587 7.51526 100.35 7.37376 101.11 7.37776C101.918 7.38276 102.725 7.55126 103.468 7.88176C105.361 8.72376 106.837 10.5608 106.849 13.3513L106.853 14.1693C108.187 13.6943 109.693 13.7473 110.988 14.3233C112.77 15.1158 114.17 16.8433 114.235 19.4953L114.618 35.0388C114.619 35.0703 114.619 35.1008 114.618 35.1318L114.626 51.4523C114.628 55.6313 113.121 59.5508 110.313 62.6433L110.314 66.5013H110.503C111.608 66.5013 112.503 67.3968 112.503 68.5013V81.5113L98.0905 81.2898L98.0514 80.5608ZM99.32 37.1178C99.32 38.2198 98.4259 39.1138 97.3239 39.1138C96.2214 39.1138 95.3285 38.2198 95.328 37.1178L95.32 10.2863C95.3195 9.22476 94.797 8.29076 93.6575 8.28726C92.49 8.28426 91.8694 9.18976 91.8545 10.3098L91.47 37.9113C91.455 38.9908 90.5929 39.8723 89.5084 39.8893C88.4084 39.9063 87.505 39.0283 87.485 37.9283L87.065 15.2493C87.044 14.1263 86.4375 13.2268 85.2665 13.2268C84.1025 13.2268 83.5279 14.1348 83.5114 15.2413L83.1234 40.5003L83.1784 41.5428C83.1829 41.6253 83.1819 41.7068 83.1764 41.7868L83.0155 47.5738C82.9845 48.6733 82.0679 49.5413 80.9684 49.5113C79.8679 49.4808 79.0134 48.5643 79.0309 47.4643L79.136 40.6473L78.5729 30.0548C78.5134 28.9293 77.8345 28.1638 77.0175 27.8223C76.6815 27.6823 76.3359 27.6088 76.0094 27.6068C75.7039 27.6053 75.415 27.6608 75.168 27.7768C74.6845 28.0038 74.3274 28.5613 74.3239 29.5098L74.272 41.4898C74.2745 41.5483 74.2745 41.6078 74.2715 41.6673L73.9875 47.4818C73.683 53.7083 75.7055 58.8393 82.357 59.8428C83.3795 59.9318 84.1815 60.7898 84.1815 61.8353V66.4998H106.33L106.329 62.0088C106.279 61.4408 106.472 60.8558 106.907 60.4213C109.34 57.9873 110.625 54.8928 110.626 51.4513L110.634 35.1323L110.251 19.5883C110.228 18.6338 109.732 17.8268 108.718 17.8308C107.723 17.8353 107.229 18.6228 107.216 19.5653L106.954 37.9243C106.938 39.0098 106.059 39.8843 104.969 39.8888C103.869 39.8928 102.974 39.0043 102.969 37.9043L102.865 13.3668C102.86 12.2633 102.243 11.3688 101.095 11.3618C99.9284 11.3548 99.3399 12.2588 99.3239 13.3703L99.32 37.1178ZM112.504 108.905V124.361C112.504 126.121 104.004 128 95.5039 128C87.0039 128 73.5039 126.12 73.5039 124.361L74.5664 112.493C75.2154 112.578 75.878 112.622 76.554 112.622H92.9195L108.463 112.24C110.85 112.181 112.077 110.569 112.161 108.905H112.504Z" fill="#3B4652"></path><path d="M47.439 98.0514C47.719 103.312 55.6475 104.171 55.6725 98.5024L55.725 86.4304L56.0095 80.6164C56.0515 79.7579 56.0505 78.9519 56.0125 78.1919L59.499 78.5039C60.4935 78.5039 61.319 79.2299 61.473 80.1814H64.5235C66.4885 72.3934 73.1145 69.6304 80.704 70.0024L86.5185 70.2869L98.504 70.3394C101.237 70.3509 102.985 71.6784 103.831 73.4799C104.202 74.2709 104.381 75.1439 104.376 76.0244C104.371 76.8839 104.198 77.7489 103.865 78.5479C103.745 78.8339 103.605 79.1134 103.447 79.3829L112.805 79.5264C115.6 79.5694 117.421 81.0189 118.26 82.8794C118.98 84.4769 118.934 86.3209 118.148 87.8854C121.328 88.0994 123.705 90.4804 123.697 93.6569C123.689 95.9594 122.367 98.0239 120.196 98.8764C120.485 99.5875 120.626 100.35 120.621 101.111C120.617 101.918 120.448 102.726 120.118 103.469C119.275 105.361 117.438 106.837 114.648 106.849L113.83 106.853C114.305 108.187 114.253 109.693 113.676 110.988C112.883 112.77 111.156 114.17 108.504 114.235L92.9605 114.618C92.9295 114.619 92.8985 114.619 92.868 114.618L76.547 114.626C72.368 114.628 68.4485 113.121 65.356 110.313L61.5 110.315V110.504C61.5 111.609 60.6045 112.504 59.5 112.504H46.49L46.7115 98.091L47.439 98.0514ZM90.883 99.3199C89.7805 99.3199 88.887 98.4264 88.887 97.3239C88.887 96.2219 89.7805 95.3284 90.883 95.3279L117.714 95.3199C118.775 95.3199 119.71 94.7969 119.713 93.6579C119.716 92.4899 118.811 91.8699 117.69 91.8544L90.089 91.4699C89.01 91.4549 88.128 90.5934 88.111 89.5084C88.094 88.4084 88.972 87.5054 90.0725 87.4849L112.751 87.0649C113.874 87.0444 114.773 86.4379 114.773 85.2669C114.773 84.1024 113.866 83.5284 112.759 83.5114L87.5 83.1234L86.4575 83.1789C86.375 83.1829 86.294 83.1819 86.2135 83.1764L80.427 83.0154C79.3265 82.9844 78.459 82.0684 78.4895 80.9684C78.52 79.8684 79.436 79.0139 80.5365 79.0309L87.353 79.1359L97.9455 78.5734C99.071 78.5134 99.8365 77.8349 100.178 77.0174C100.318 76.6814 100.392 76.3359 100.394 76.0094C100.395 75.7044 100.34 75.4149 100.224 75.1679C99.997 74.6844 99.439 74.3279 98.49 74.3239L86.5105 74.2714C86.452 74.2739 86.3925 74.2739 86.333 74.2714L80.5185 73.9869C74.292 73.6824 69.161 75.7049 68.157 82.3564C68.0685 83.3794 67.2105 84.1814 66.165 84.1814H61.5V106.33L65.9905 106.328C66.559 106.279 67.144 106.472 67.5785 106.906C70.0125 109.34 73.107 110.624 76.5485 110.625L92.8675 110.634L108.411 110.251C109.366 110.227 110.173 109.731 110.17 108.717C110.165 107.723 109.376 107.229 108.435 107.216L90.0755 106.953C88.99 106.938 88.1155 106.059 88.1115 104.969C88.107 103.869 88.9955 102.974 90.096 102.969L114.633 102.864C115.737 102.86 116.631 102.243 116.638 101.095C116.645 99.9279 115.742 99.3394 114.63 99.3234L90.883 99.3199ZM19.0955 112.504H3.6395C1.8795 112.504 0 104.004 0 95.5039C0 87.0039 1.8795 73.5039 3.6395 73.5039L15.5075 74.5664C15.422 75.2154 15.378 75.8784 15.378 76.5539V92.9194L15.761 108.463C15.82 110.85 17.4315 112.077 19.0955 112.161V112.504Z" fill="#3B4652"></path></g><defs><clipPath id="clip0_235_1518"><rect width="128" height="128" fill="white"></rect></clipPath></defs></svg>