<svg xmlns="http://www.w3.org/2000/svg" width="128" height="128" viewBox="0 0 128 128" fill="none"><g clip-path="url(#clip0_235_1496)"><path d="M23.053 56.281C22.458 57.2815 22.478 58.516 22.9695 59.627C24.682 63.4976 32.89 65.879 35.7705 64.0325C36.5455 63.5355 36.8805 62.775 37.004 61.835C33.45 61.4221 31.527 60.463 28.4335 59.1835C26.4895 58.3805 24.6715 57.3985 23.053 56.281ZM69.4865 4.89455C73.6125 4.14155 76.4845 2.59105 78.587 1.45505C82.2735 -0.536951 84.514 -1.74595 87.3955 1.20605C88.1935 2.02405 89.0295 3.49305 89.5695 5.17005C89.749 5.72955 89.9035 6.32705 90.0185 6.94505C94.3065 7.23155 98.326 9.44655 100.084 13.5245C100.873 15.3535 101.166 17.4776 100.838 19.826C101.848 20.1996 102.76 20.6646 103.563 21.2076C106.795 23.3876 108.452 26.899 107.841 30.776C107.748 31.36 107.606 31.9491 107.413 32.5386C111.564 35.3966 112.945 41.7266 111.161 46.2956C114.829 48.541 116.071 52.6505 115.426 56.7595C114.839 60.502 112.659 64.542 109.127 67.6825C108.755 68.014 108.386 68.34 108.022 68.66C109.646 71.772 111.522 74.292 113.575 77.0875C114.734 76.774 116.019 77.181 116.771 78.2075L120.548 83.3515C121.355 83.014 122.321 83.241 122.885 83.9645L127.461 89.8005C127.795 90.158 127.999 90.638 127.999 91.165V126.564C127.999 127.668 127.104 128.564 125.999 128.564L89.336 128.56C88.6795 128.56 88.037 128.236 87.6565 127.642L80.212 116.074C79.6855 115.309 79.764 114.293 80.3645 113.618L76.6885 108.383C75.8975 107.335 75.8995 105.935 76.5945 104.904C73.235 100.11 71.334 96.024 65.7275 93.5005C62.089 94.2701 58.714 95.4545 55.7335 99.2405L51.3445 104.818C52.099 105.856 52.1245 107.305 51.311 108.382L47.636 113.618C48.2355 114.293 48.3135 115.308 47.788 116.073L40.343 127.641C39.962 128.235 39.321 128.563 38.6645 128.563H2.001C0.896499 128.563 0.000999451 127.668 0.000999451 126.563V91.1645C0.000999451 90.6375 0.204999 90.1575 0.537999 89.8L5.114 83.964C5.679 83.241 6.644 83.014 7.4515 83.351L11.2285 78.207C11.957 77.213 13.1835 76.8 14.313 77.0585C16.8615 73.8405 19.6685 70.586 21.827 67.1035C18.5275 64.8185 16.549 61.5255 16.6265 57.7945C16.668 55.7795 17.3465 53.8186 18.5965 52.2365C15.5935 48.5471 14.32 43.4356 16.2655 39.0065C16.918 37.5201 17.9235 36.166 19.3705 35.0811C17.743 29.2796 20.7125 24.376 26.598 22.5345C27.0595 17.4235 31.0145 13.993 35.546 12.396C37.746 11.6205 40.2915 11.176 43.1 11.1455C44.2335 9.79905 45.8695 8.68655 48.099 7.97155C53.6965 6.17555 54.4325 5.99905 56.998 5.38505C57.453 5.27605 57.9945 5.14605 59.7845 4.70005C63.516 3.77055 66.661 3.91605 69.4865 4.89455ZM84.0275 7.53255C83.9815 7.35055 83.93 7.17155 83.874 6.99805C83.614 6.19305 83.325 5.60205 83.1065 5.37855C82.825 5.09105 82.6455 6.06805 81.422 6.72855C80.0265 7.48205 78.343 8.39155 76.2315 9.20555C76.508 9.46855 76.7825 9.74005 77.0545 10.0195C78.204 9.54005 79.377 9.07205 80.574 8.61505C81.746 8.16705 82.9005 7.80555 84.0275 7.53255ZM71.157 12.6955C70.2675 11.9535 69.362 11.35 68.4195 10.914C66.445 10 64.146 9.78205 61.215 10.5125C60.594 10.668 59.3765 10.959 58.3805 11.1975C56.062 11.753 55.3965 11.912 49.9275 13.6665C48.386 14.1605 47.0195 15.031 47.11 16.8235C47.211 18.8081 48.866 20.9275 50.681 21.651C51.445 21.9555 52.685 21.8701 54.1335 21.5401C56.154 21.0801 58.3925 20.1465 60.4185 19.0535C63.7685 16.677 67.327 14.587 71.157 12.6955ZM54.646 27.5401C52.4655 27.9401 50.3105 27.9365 48.4785 27.2065C46.1665 26.284 44.159 24.4951 42.8435 22.3741C41.8665 20.798 41.256 19.0225 41.141 17.2435C38.956 17.4785 37.103 18.0585 35.6635 18.897C33.1985 20.333 31.8055 22.5585 32.9565 25.5406C34.6165 29.8421 40.332 33.5845 45.7795 35.8075C47.5615 36.535 50.82 37.797 52.421 37.912C56.888 38.232 58.56 32.2381 54.646 27.5401ZM74.092 91.703C76.7375 94.1565 79.173 98.17 81.2745 101.17L108.666 80.5155C106.76 77.9201 104.942 75.484 103.364 72.6495C102.285 73.536 101.372 74.25 100.693 74.73L82.211 87.784C79.385 89.781 76.6865 90.9335 74.092 91.703ZM113.74 84.193L83.186 107.232L85.14 110.022L115.74 86.917L113.74 84.193ZM27.268 69.691C24.948 73.514 22.0205 76.9495 19.247 80.451L46.64 101.107L51.023 95.5375C56.019 89.1915 61.282 88.219 66.976 87.1685C70.7385 86.474 74.731 85.737 78.766 82.8865L97.2485 69.833C99.9235 67.944 102.687 65.3905 105.143 63.2061C107.624 61 109.137 58.2845 109.52 55.8456C109.928 53.2461 109.085 51.273 106.302 50.78C103.795 50.5105 102.688 47.376 104.584 45.613C106.903 43.449 105.873 37.4905 103.375 37.2095C102.761 37.2335 102.135 37.069 101.587 36.6991C100.215 35.7736 99.8525 33.9111 100.779 32.5391C101.429 31.5751 101.807 30.6735 101.935 29.862C102.185 28.278 101.516 27.0555 100.214 26.1765C99.355 25.5975 98.239 25.17 96.893 24.945C95.0055 24.7215 93.7855 22.805 94.4175 20.99C95.145 18.908 95.1345 17.1845 94.5765 15.8925C94.008 14.573 92.9125 13.756 91.5815 13.291C88.4135 12.1855 85.6735 13.173 82.7035 14.216C74.3265 17.176 67.4165 21.067 61.1985 25.935L60.9355 26.142C62.5125 28.9135 63.1925 32.051 62.668 35.1656C62.218 37.8426 60.8925 40.2131 58.841 41.8396C60.165 47.0565 57.219 51.678 52.2835 53.3505C51.555 57.897 47.6265 60.9251 43.017 61.7756C42.7075 66.6011 39.68 69.833 34.979 70.528C32.641 70.8715 29.9545 70.5536 27.268 69.691ZM52.773 45.8661C53.085 45.3246 53.2265 44.6631 53.1455 43.9141C50.1505 44.0036 46.5745 42.6055 43.5295 41.362C36.7375 38.59 30.271 34.05 27.709 28.4785C24.59 29.744 24.286 32.2891 25.748 34.9776C30.5795 43.8661 49.224 52.0391 52.773 45.8661ZM45.7075 53.87C37.516 52.875 27.408 47.1926 22.277 40.543C21.1645 41.8915 21.181 43.9035 21.64 45.542C22.664 49.1975 27.0835 52.1545 30.7075 53.6525C33.697 54.889 35.4055 55.8371 39.491 56.0345C41.7655 56.1436 44.3855 55.5585 45.7075 53.87ZM44.8135 107.232L15.5265 85.1485L13.4395 87.7835L42.8595 110.022L44.8135 107.232Z" fill="#3B4652"></path><path d="M75.7755 10.7251C75.68 10.6471 75.6055 10.5861 75.7735 10.7276L75.7755 10.7251Z" fill="#01B5F0"></path></g><defs><clipPath id="clip0_235_1496"><rect width="128" height="128" fill="white"></rect></clipPath></defs></svg>