<svg xmlns="http://www.w3.org/2000/svg" width="128" height="128" viewBox="0 0 128 128" fill="none"><path d="M42.6667 26.667C42.6648 29.3089 42.0086 31.9092 40.7569 34.2358C39.5052 36.5624 37.6969 38.5428 35.4934 40.0003H17.84C15.5314 38.4734 13.6584 36.3736 12.4041 33.9063C11.1497 31.439 10.5568 28.6884 10.6834 25.9235C10.81 23.1585 11.6518 20.4736 13.1264 18.1312C14.6009 15.7889 16.658 13.8691 19.0964 12.5595C21.5349 11.2499 24.2714 10.5953 27.0385 10.6596C29.8057 10.7239 32.5088 11.505 34.8838 12.9265C37.2588 14.348 39.2244 16.3613 40.5885 18.7697C41.9527 21.178 42.6687 23.8991 42.6667 26.667Z" fill="#F8F9F9"></path><path d="M33.2 26.9604C32.5702 26.6441 31.8408 26.59 31.1712 26.8098C30.5017 27.0297 29.9463 27.5057 29.6266 28.1338L26.6666 34.0271L23.7066 28.1338C23.3595 27.5568 22.8069 27.1326 22.1599 26.9462C21.5129 26.7598 20.8194 26.825 20.2185 27.1289C19.6176 27.4327 19.1539 27.9526 18.9205 28.5841C18.687 29.2157 18.7011 29.9122 18.96 30.5338C24.48 41.6004 24.2933 41.8671 25.6 42.4004C25.9296 42.5711 26.2954 42.6602 26.6666 42.6602C27.0379 42.6602 27.4037 42.5711 27.7333 42.4004C28.96 41.8671 28.6133 42.0538 34.3733 30.5338C34.6896 29.904 34.7437 29.1746 34.5239 28.505C34.304 27.8354 33.828 27.2801 33.2 26.9604Z" fill="#BEC6C6"></path><path d="M34.6667 40V48L32 53.3333H21.3334L18.6667 48V40H34.6667Z" fill="#BEC6C6"></path><path d="M114.667 74.667V82.667L63.9999 85.3337L13.3332 82.667V74.667H114.667Z" fill="#BEC6C6"></path><path d="M5.33319 53.333H47.9999V58.6663C47.9999 60.0808 47.438 61.4374 46.4378 62.4376C45.4376 63.4378 44.081 63.9997 42.6665 63.9997H10.6665C9.25204 63.9997 7.89548 63.4378 6.89529 62.4376C5.89509 61.4374 5.33319 60.0808 5.33319 58.6663V53.333Z" fill="#F8F9F9"></path><path d="M117.333 64L85.3334 64C83.9189 64 82.5623 63.4381 81.5621 62.4379C80.5619 61.4377 80 60.0812 80 58.6667V53.3333L122.667 53.3333V58.6667C122.667 60.0812 122.105 61.4377 121.105 62.4379C120.104 63.4381 118.748 64 117.333 64Z" fill="#F8F9F9"></path><path d="M34.6667 74.6667H18.6667L24 64H29.3334L34.6667 74.6667Z" fill="#BEC6C6"></path><path d="M93.3334 74.6667H109.333L104 64H98.6667L93.3334 74.6667Z" fill="#BEC6C6"></path><path d="M101.333 50.6667C113.115 50.6667 122.667 41.1154 122.667 29.3333C122.667 17.5513 113.115 8 101.333 8C89.5513 8 80 17.5513 80 29.3333C80 41.1154 89.5513 50.6667 101.333 50.6667Z" fill="#F97E20"></path><path d="M101.333 26.6663C100.806 26.6663 100.29 26.5099 99.8519 26.2169C99.4133 25.9239 99.0715 25.5074 98.8697 25.0202C98.6679 24.5329 98.615 23.9967 98.7179 23.4794C98.8208 22.9622 99.0748 22.487 99.4478 22.1141C99.8207 21.7411 100.296 21.4871 100.813 21.3842C101.33 21.2814 101.867 21.3342 102.354 21.536C102.841 21.7378 103.258 22.0796 103.551 22.5182C103.844 22.9567 104 23.4723 104 23.9997C104 24.7069 104.281 25.3852 104.781 25.8853C105.281 26.3854 105.959 26.6663 106.667 26.6663C111.093 26.6663 109.893 18.6663 104 16.4797V15.9997C104 15.2924 103.719 14.6142 103.219 14.1141C102.719 13.614 102.041 13.333 101.333 13.333C100.626 13.333 99.9478 13.614 99.4478 14.1141C98.9477 14.6142 98.6667 15.2924 98.6667 15.9997V16.4797C96.9031 17.1196 95.4204 18.3591 94.478 19.9814C93.5355 21.6036 93.1933 23.5056 93.511 25.3546C93.8287 27.2037 94.7862 28.8823 96.2161 30.097C97.6459 31.3116 99.4573 31.9851 101.333 31.9997C101.861 31.9997 102.376 32.1561 102.815 32.4491C103.253 32.7421 103.595 33.1586 103.797 33.6459C103.999 34.1331 104.052 34.6693 103.949 35.1866C103.846 35.7039 103.592 36.179 103.219 36.552C102.846 36.9249 102.371 37.1789 101.854 37.2818C101.336 37.3847 100.8 37.3319 100.313 37.13C99.8256 36.9282 99.4091 36.5864 99.1161 36.1479C98.8231 35.7093 98.6667 35.1938 98.6667 34.6663C98.6667 33.9591 98.3858 33.2808 97.8857 32.7807C97.3856 32.2806 96.7073 31.9997 96 31.9997C91.5734 31.9997 92.7734 39.9997 98.6667 42.1863V42.6663C98.6667 43.3736 98.9477 44.0519 99.4478 44.552C99.9478 45.0521 100.626 45.333 101.333 45.333C102.041 45.333 102.719 45.0521 103.219 44.552C103.719 44.0519 104 43.3736 104 42.6663V42.1863C105.764 41.5464 107.246 40.3069 108.189 38.6847C109.131 37.0624 109.473 35.1605 109.156 33.3114C108.838 31.4623 107.881 29.7837 106.451 28.569C105.021 27.3544 103.209 26.6809 101.333 26.6663Z" fill="#F8F9F9"></path><path d="M45.3335 106.667H82.6669C84.0813 106.667 85.4379 107.229 86.4381 108.229C87.4383 109.229 88.0002 110.586 88.0002 112V117.334H40.0002V112C40.0002 110.586 40.5621 109.229 41.5623 108.229C42.5625 107.229 43.919 106.667 45.3335 106.667Z" fill="#F8F9F9"></path><path d="M77.3334 106.667H50.6667L53.3334 96H74.6667L77.3334 106.667Z" fill="#BEC6C6"></path><path d="M72.0002 95.9997H56.0002L61.3335 69.333H66.6669L72.0002 95.9997Z" fill="#F8F9F9"></path><path d="M122.667 50.6667H80C79.2928 50.6667 78.6145 50.9476 78.1144 51.4477C77.6143 51.9478 77.3334 52.6261 77.3334 53.3333V58.6667C77.3334 60.7884 78.1762 62.8232 79.6765 64.3235C81.1768 65.8238 83.2116 66.6667 85.3334 66.6667H94.3733L91.7067 72H69.92L69.3334 68.8C69.2087 68.1886 68.8736 67.6403 68.3863 67.2505C67.8991 66.8607 67.2905 66.6541 66.6667 66.6667H61.3334C60.7095 66.6541 60.101 66.8607 59.6137 67.2505C59.1265 67.6403 58.7914 68.1886 58.6667 68.8L58.08 72H36.32L33.6534 66.6667H42.6667C44.7884 66.6667 46.8232 65.8238 48.3235 64.3235C49.8238 62.8232 50.6667 60.7884 50.6667 58.6667V53.3333C50.6667 52.6261 50.3857 51.9478 49.8856 51.4477C49.3855 50.9476 48.7073 50.6667 48 50.6667H36.32C37.6 48 37.3334 49.3867 37.3334 41.9467C39.8072 40.2406 41.8284 37.9578 43.2222 35.2956C44.6161 32.6333 45.3406 29.6717 45.3334 26.6667C45.3334 21.716 43.3667 16.968 39.866 13.4673C36.3653 9.96666 31.6174 8 26.6667 8C21.716 8 16.968 9.96666 13.4674 13.4673C9.96668 16.968 8.00002 21.716 8.00002 26.6667C7.99273 29.6717 8.71731 32.6333 10.1112 35.2956C11.505 37.9578 13.5262 40.2406 16 41.9467C16 49.36 15.7334 48.08 17.04 50.6667H5.33335C4.62611 50.6667 3.94783 50.9476 3.44774 51.4477C2.94764 51.9478 2.66669 52.6261 2.66669 53.3333V58.6667C2.66669 60.7884 3.50954 62.8232 5.00983 64.3235C6.51012 65.8238 8.54495 66.6667 10.6667 66.6667H19.7067L17.04 72H13.3334C12.6261 72 11.9478 72.281 11.4477 72.7811C10.9476 73.2811 10.6667 73.9594 10.6667 74.6667V82.6667C10.6667 83.3739 10.9476 84.0522 11.4477 84.5523C11.9478 85.0524 12.6261 85.3333 13.3334 85.3333L55.12 87.52L53.8134 93.3333H53.3334C52.7242 93.3156 52.1273 93.507 51.6421 93.8758C51.1569 94.2445 50.8127 94.7683 50.6667 95.36L48.5867 104H45.3334C43.2116 104 41.1768 104.843 39.6765 106.343C38.1762 107.843 37.3334 109.878 37.3334 112V117.333C37.3334 118.041 37.6143 118.719 38.1144 119.219C38.6145 119.719 39.2928 120 40 120H88C88.7073 120 89.3855 119.719 89.8856 119.219C90.3857 118.719 90.6667 118.041 90.6667 117.333V112C90.6667 109.878 89.8238 107.843 88.3235 106.343C86.8232 104.843 84.7884 104 82.6667 104H79.4134L77.3334 95.36C77.1873 94.7683 76.8431 94.2445 76.3579 93.8758C75.8727 93.507 75.2758 93.3156 74.6667 93.3333H74.1867L73.0133 87.52L114.8 85.3333C115.507 85.3333 116.186 85.0524 116.686 84.5523C117.186 84.0522 117.467 83.3739 117.467 82.6667V74.6667C117.467 73.9594 117.186 73.2811 116.686 72.7811C116.186 72.281 115.507 72 114.8 72H110.987L108.32 66.6667H117.333C119.455 66.6667 121.49 65.8238 122.99 64.3235C124.49 62.8232 125.333 60.7884 125.333 58.6667V53.3333C125.333 52.6261 125.052 51.9478 124.552 51.4477C124.052 50.9476 123.374 50.6667 122.667 50.6667ZM26.6667 13.3333C29.4651 13.3333 32.1926 14.2138 34.4628 15.8501C36.733 17.4864 38.4309 19.7955 39.3158 22.4503C40.2007 25.1051 40.2279 27.9711 39.3935 30.6422C38.5591 33.3134 36.9054 35.6543 34.6667 37.3333H18.6667C16.4279 35.6543 14.7742 33.3134 13.9398 30.6422C13.1054 27.9711 13.1326 25.1051 14.0176 22.4503C14.9025 19.7955 16.6003 17.4864 18.8705 15.8501C21.1408 14.2138 23.8683 13.3333 26.6667 13.3333ZM21.3334 47.36V42.6667H32V47.36L30.3467 50.6667H22.9867L21.3334 47.36ZM10.6667 61.3333C9.95944 61.3333 9.28117 61.0524 8.78107 60.5523C8.28097 60.0522 8.00002 59.3739 8.00002 58.6667V56H45.3334V58.6667C45.3334 59.3739 45.0524 60.0522 44.5523 60.5523C44.0522 61.0524 43.3739 61.3333 42.6667 61.3333H10.6667ZM25.6534 66.6667H27.68L30.3467 72H22.9867L25.6534 66.6667ZM16 80.1333V77.3333H57.0133L56 82.24L16 80.1333ZM85.3334 112V114.667H42.6667V112C42.6667 111.293 42.9476 110.614 43.4477 110.114C43.9478 109.614 44.6261 109.333 45.3334 109.333H82.6667C83.3739 109.333 84.0522 109.614 84.5523 110.114C85.0524 110.614 85.3334 111.293 85.3334 112ZM54.08 104L55.4134 98.6667H72.5867L73.92 104H54.08ZM68.7467 93.3333H59.2533C61.3067 82.9067 59.5467 91.8933 63.52 72H64.48C68.6667 92.9333 66.3734 81.4133 68.7467 93.3333ZM112 80.1333L72 82.24L70.9867 77.3333H112V80.1333ZM105.013 72H97.6533L100.32 66.6667H102.347L105.013 72ZM120 58.6667C120 59.3739 119.719 60.0522 119.219 60.5523C118.719 61.0524 118.041 61.3333 117.333 61.3333H85.3334C84.6261 61.3333 83.9478 61.0524 83.4477 60.5523C82.9476 60.0522 82.6667 59.3739 82.6667 58.6667V56H120V58.6667Z" fill="#414141"></path></svg>