<svg xmlns="http://www.w3.org/2000/svg" width="128" height="128" viewBox="0 0 128 128" fill="none"><g clip-path="url(#clip0_235_1479)"><path d="M52.3495 32.0303C53.533 32.1178 54.7565 32.1843 55.845 32.8533C59.6865 35.2168 63.832 36.9053 68.263 37.7693C73.6325 36.8053 78.767 35.4663 83.915 33.6533C86.8845 32.6058 90.141 34.1643 91.1885 37.1338C92.236 40.1033 90.678 43.3598 87.708 44.4073C81.752 46.5053 75.4425 48.1178 69.2185 49.1838C68.483 49.3093 67.7565 49.2878 67.069 49.1408C61.9665 48.2603 57.1205 46.5693 52.559 44.1298L52.165 45.2873L50.084 118.977C49.9915 122.26 46.6545 124.927 43.6585 124.927C41.6475 124.927 39.136 124.112 38.1095 122.83C37.538 122.115 36.451 122.115 35.8795 122.83C34.8535 124.112 32.342 124.927 30.331 124.927C27.3345 124.927 24.0105 122.261 23.905 118.977L22.5815 77.8098L20.977 77.5998C18.0775 77.2193 14.615 75.3088 14.0755 72.4368C10.863 55.3438 11.516 54.5578 13.83 36.6478C14.166 35.3643 15.606 33.0893 18.3015 32.7718L29.6095 31.4383C30.3335 31.3528 31.021 31.6253 31.422 32.2308L36.9945 40.6388L42.567 32.2308C42.97 31.6228 43.655 31.3533 44.3795 31.4383L52.3495 32.0303ZM37.1945 3.07527C43.0225 3.19077 47.657 8.24627 47.547 14.3678C47.437 20.4888 42.5795 27.8068 36.7515 27.6908C30.924 27.5748 26.333 20.0703 26.4435 13.9488C26.553 7.82777 31.3665 2.95927 37.1945 3.07527Z" fill="#3B4552"></path><path fill-rule="evenodd" clip-rule="evenodd" d="M64.9375 56.7026L87.7285 50.7246L110.519 56.7026C114.012 57.6186 116.359 60.7966 116.103 64.3991L114.35 89.0676C113.271 107.334 104.98 115.357 91.739 123.737C89.231 125.324 86.2245 125.324 83.7165 123.737C70.4765 115.358 62.1845 107.333 61.106 89.0676L59.3535 64.3991C59.098 60.7966 61.4445 57.6186 64.9375 56.7026ZM68.426 65.0921L70.0875 88.4836L70.091 88.5371C70.923 102.629 76.591 108.475 87.7275 115.62L87.7285 60.0286L68.426 65.0921Z" fill="#F97E20"></path><path d="M333.323 360.009C334.941 362.896 333.913 366.547 331.026 368.165C328.139 369.783 324.488 368.754 322.87 365.868C322.057 364.416 321.086 362.842 319.9 360.92C311.492 347.281 293.834 318.637 298.295 297.332C304.647 267 330.656 243.082 330.656 200.906C330.656 154.278 289.138 125.01 244.031 125.01C217.963 125.01 192.582 137.259 174.854 156.116C159.711 172.221 150.211 193.477 154.018 213.208C155.501 220.866 143.908 241.815 134.159 259.432L129.359 268.28C129.02 269.464 132.514 270.105 133.055 270.261C137.326 271.497 143.518 273.289 146.633 273.951C150.218 274.713 152.376 278.435 150.877 282.216C149.76 285.348 148.604 287.721 147.148 290.555C150.308 291.268 154.232 291.977 156.699 292.036C160 292.113 162.612 294.853 162.535 298.153C162.458 301.454 159.719 304.066 156.418 303.989C154.332 303.937 151.71 303.605 149.046 303.136C155.013 307.507 153.985 313.254 152.756 320.109C152.185 323.3 151.533 326.935 152.823 330.352C156.194 337.207 174.282 339.054 183.852 341.23C196.321 344.064 213.028 339.833 222.301 360.571C223.647 363.587 222.293 367.123 219.278 368.469C216.261 369.816 212.725 368.461 211.38 365.446C205.504 352.304 192.72 355.515 181.228 352.902C166.531 349.56 149.845 349.039 142.344 336.202L142.365 336.19C142.246 335.985 142.136 335.769 142.04 335.545C135.898 321.327 146.627 313.683 137.393 310.808C132.342 309.236 131.701 302.363 136.291 299.841C133.092 298.501 131.607 294.784 133.16 291.64L137.126 283.858C132.818 282.658 126.769 281.129 124.378 279.826C117.965 276.331 115.36 268.876 119.008 262.18C126.098 249.166 143.074 219.706 142.255 215.458C137.676 191.733 148.376 166.803 166.137 147.913C186.08 126.7 214.719 113.009 244.031 113.009C295.658 113.009 342.656 147.541 342.656 200.905C342.656 246.46 315.862 271.838 310.013 299.769C306.522 316.439 322.476 342.316 330.072 354.638C331.529 357.001 332.722 358.935 333.323 360.009Z" fill="#3B4652"></path></g><defs><clipPath id="clip0_235_1479"><rect width="128" height="128" fill="white"></rect></clipPath></defs></svg>