<svg xmlns="http://www.w3.org/2000/svg" width="128" height="128" viewBox="0 0 128 128" fill="none"><path d="M16 122.667H117.333V37.334L108.4 47.7607C107.477 48.8335 106.349 49.7118 105.083 50.3446C103.817 50.9773 102.438 51.3517 101.026 51.446C99.6134 51.5403 98.1965 51.3527 96.8576 50.8939C95.5186 50.4352 94.2843 49.7145 93.2267 48.774L84.96 41.4407C84.0536 40.6326 82.9752 40.0415 81.8064 39.7121C80.6376 39.3827 79.4092 39.3238 78.2143 39.5396C77.0193 39.7555 75.8892 40.2405 74.9095 40.958C73.9299 41.6755 73.1264 42.6065 72.56 43.6806L59.4933 68.374C58.85 69.5885 57.9046 70.6169 56.7483 71.3598C55.592 72.1028 54.2638 72.5353 52.8918 72.6157C51.5197 72.6961 50.1501 72.4216 48.9149 71.8188C47.6798 71.216 46.6208 70.3051 45.84 69.174L34.8 53.174C34.1344 52.2084 33.2647 51.401 32.2524 50.8089C31.2402 50.2168 30.1101 49.8545 28.9423 49.7477C27.7744 49.6408 26.5974 49.792 25.4945 50.1906C24.3916 50.5891 23.3898 51.2253 22.56 52.054L16 58.6673V122.667Z" fill="#F8F9F9"></path><path d="M29.3333 56.0007C32.2789 56.0007 34.6667 53.6128 34.6667 50.6673C34.6667 47.7218 32.2789 45.334 29.3333 45.334C26.3878 45.334 24 47.7218 24 50.6673C24 53.6128 26.3878 56.0007 29.3333 56.0007Z" fill="#BEC6C6"></path><path d="M53.3332 77.3337C56.2787 77.3337 58.6665 74.9458 58.6665 72.0003C58.6665 69.0548 56.2787 66.667 53.3332 66.667C50.3876 66.667 47.9998 69.0548 47.9998 72.0003C47.9998 74.9458 50.3876 77.3337 53.3332 77.3337Z" fill="#BEC6C6"></path><path d="M77.3332 45.3337C80.2787 45.3337 82.6665 42.9458 82.6665 40.0003C82.6665 37.0548 80.2787 34.667 77.3332 34.667C74.3877 34.667 71.9998 37.0548 71.9998 40.0003C71.9998 42.9458 74.3877 45.3337 77.3332 45.3337Z" fill="#BEC6C6"></path><path d="M101.333 56.0007C104.279 56.0007 106.667 53.6128 106.667 50.6673C106.667 47.7218 104.279 45.334 101.333 45.334C98.3878 45.334 96 47.7218 96 50.6673C96 53.6128 98.3878 56.0007 101.333 56.0007Z" fill="#BEC6C6"></path><path d="M17.8931 60.56L22.9598 55.4933C23.5963 56.3314 24.3918 57.0358 25.3009 57.5659C26.2101 58.0961 27.2148 58.4417 28.2577 58.5829C29.3006 58.7241 30.3611 58.6581 31.3785 58.3888C32.3958 58.1194 33.3501 57.652 34.1865 57.0133C44.7198 72.24 44.0265 71.4133 45.3865 72.6666C45.6517 74.7813 46.7461 76.704 48.4289 78.0117C50.1117 79.3195 52.2452 79.9052 54.3598 79.64C56.4745 79.3747 58.3972 78.2803 59.7049 76.5975C61.0127 74.9147 61.5984 72.7813 61.3331 70.6666C61.7598 70.08 60.8265 71.7866 73.8931 47.1466C75.6677 48.0356 77.7095 48.2332 79.6216 47.701C81.5337 47.1687 83.1797 45.9447 84.2398 44.2666C92.4531 51.5466 92.2398 51.3866 93.6265 52.2666C94.1223 54.0974 95.2525 55.6924 96.8154 56.7671C98.3782 57.8417 100.272 58.3262 102.159 58.134C104.046 57.9418 105.803 57.0854 107.117 55.7176C108.431 54.3499 109.217 52.5597 109.333 50.6666C110.24 49.84 109.333 50.6666 119.36 39.12C119.587 38.8538 119.76 38.5454 119.869 38.2124C119.977 37.8794 120.019 37.5284 119.992 37.1792C119.965 36.8301 119.869 36.4897 119.71 36.1775C119.551 35.8654 119.333 35.5876 119.066 35.36C118.8 35.1323 118.492 34.9594 118.159 34.8509C117.826 34.7425 117.475 34.7007 117.126 34.7279C116.777 34.7551 116.436 34.8509 116.124 35.0097C115.812 35.1684 115.534 35.3871 115.306 35.6533L107.12 45.2C106.278 44.32 105.247 43.6437 104.104 43.2226C102.962 42.8016 101.738 42.6469 100.527 42.7703C99.3156 42.8938 98.1484 43.2921 97.1143 43.935C96.0802 44.5778 95.2065 45.4483 94.5598 46.48C85.5731 38.48 86.2931 39.0133 85.1465 38.32C84.917 37.2319 84.4633 36.2037 83.8142 35.3008C83.1651 34.3979 82.3349 33.6403 81.3766 33.0763C80.4183 32.5122 79.3529 32.1542 78.2485 32.0249C77.1441 31.8957 76.0248 31.9981 74.9622 32.3256C73.8996 32.6532 72.9169 33.1986 72.0769 33.9272C71.2368 34.6558 70.5579 35.5515 70.0835 36.5572C69.609 37.5628 69.3494 38.6564 69.3212 39.768C69.293 40.8796 69.4969 41.9849 69.9198 43.0133L57.9731 65.5466C56.3628 64.3888 54.3797 63.8704 52.4087 64.0922C50.4377 64.3139 48.6194 65.2599 47.3065 66.7466L37.3331 52.0266C37.5609 50.9702 37.5722 49.8786 37.3665 48.8177C37.1607 47.7568 36.7422 46.7486 36.1361 45.8539C35.5299 44.9592 34.7488 44.1965 33.8399 43.612C32.9309 43.0275 31.913 42.6332 30.8475 42.4529C29.7819 42.2726 28.6909 42.3101 27.6403 42.563C26.5896 42.816 25.6011 43.2792 24.7344 43.9246C23.8676 44.5701 23.1407 45.3845 22.5974 46.3187C22.0541 47.2529 21.7056 48.2874 21.5731 49.36C20.9331 49.92 21.8131 49.0666 14.2398 56.64C13.7377 57.1421 13.4556 57.8232 13.4556 58.5333C13.4556 59.2434 13.7377 59.9245 14.2398 60.4266C14.742 60.9288 15.423 61.2109 16.1331 61.2109C16.8433 61.2109 17.5243 60.9288 18.0265 60.4266L17.8931 60.56ZM101.333 48C101.861 48 102.376 48.1563 102.815 48.4494C103.253 48.7424 103.595 49.1589 103.797 49.6461C103.999 50.1334 104.051 50.6696 103.949 51.1869C103.846 51.7041 103.592 52.1793 103.219 52.5522C102.846 52.9252 102.371 53.1792 101.853 53.282C101.336 53.3849 100.8 53.3321 100.313 53.1303C99.8254 52.9285 99.4089 52.5867 99.1159 52.1481C98.8229 51.7096 98.6665 51.194 98.6665 50.6666C98.6665 49.9594 98.9474 49.2811 99.4475 48.781C99.9476 48.2809 100.626 48 101.333 48ZM77.3331 42.6666C76.8057 42.6666 76.2901 42.5102 75.8516 42.2172C75.4131 41.9242 75.0713 41.5077 74.8695 41.0204C74.6676 40.5332 74.6148 39.997 74.7177 39.4797C74.8206 38.9624 75.0746 38.4873 75.4475 38.1143C75.8205 37.7414 76.2956 37.4874 76.8129 37.3845C77.3302 37.2816 77.8664 37.3344 78.3536 37.5363C78.8409 37.7381 79.2574 38.0799 79.5504 38.5184C79.8434 38.957 79.9998 39.4725 79.9998 40C79.9998 40.7072 79.7189 41.3855 79.2188 41.8856C78.7187 42.3857 78.0404 42.6666 77.3331 42.6666ZM53.3331 69.3333C53.8606 69.3333 54.3761 69.4897 54.8147 69.7827C55.2532 70.0757 55.595 70.4922 55.7968 70.9795C55.9987 71.4667 56.0515 72.0029 55.9486 72.5202C55.8457 73.0375 55.5917 73.5126 55.2188 73.8856C54.8458 74.2585 54.3707 74.5125 53.8534 74.6154C53.3361 74.7183 52.7999 74.6655 52.3127 74.4636C51.8254 74.2618 51.4089 73.92 51.1159 73.4815C50.8229 73.0429 50.6665 72.5274 50.6665 72C50.6665 71.2927 50.9474 70.6144 51.4475 70.1143C51.9476 69.6142 52.6259 69.3333 53.3331 69.3333ZM29.3331 53.3333C28.8057 53.3333 28.2902 53.1769 27.8516 52.8839C27.4131 52.5909 27.0713 52.1744 26.8695 51.6871C26.6676 51.1998 26.6148 50.6637 26.7177 50.1464C26.8206 49.6291 27.0746 49.1539 27.4475 48.781C27.8205 48.4081 28.2956 48.1541 28.8129 48.0512C29.3302 47.9483 29.8664 48.0011 30.3536 48.2029C30.8409 48.4048 31.2574 48.7466 31.5504 49.1851C31.8434 49.6236 31.9998 50.1392 31.9998 50.6666C31.9998 51.3739 31.7189 52.0521 31.2188 52.5522C30.7187 53.0523 30.0404 53.3333 29.3331 53.3333Z" fill="#414141"></path><path d="M122.666 120H7.99984V5.33366C7.99984 4.62641 7.71889 3.94814 7.21879 3.44804C6.71869 2.94794 6.04041 2.66699 5.33317 2.66699C4.62593 2.66699 3.94765 2.94794 3.44755 3.44804C2.94746 3.94814 2.6665 4.62641 2.6665 5.33366V122.667C2.6665 123.374 2.94746 124.053 3.44755 124.553C3.94765 125.053 4.62593 125.334 5.33317 125.334H122.666C123.374 125.334 124.052 125.053 124.552 124.553C125.052 124.053 125.333 123.374 125.333 122.667C125.333 121.96 125.052 121.281 124.552 120.781C124.052 120.281 123.374 120 122.666 120Z" fill="#414141"></path><path d="M29.3332 114.667C30.8059 114.667 31.9998 113.473 31.9998 112.001C31.9998 110.528 30.8059 109.334 29.3332 109.334C27.8604 109.334 26.6665 110.528 26.6665 112.001C26.6665 113.473 27.8604 114.667 29.3332 114.667Z" fill="#BEC6C6"></path><path d="M29.3332 104C30.8059 104 31.9998 102.806 31.9998 101.334C31.9998 99.8609 30.8059 98.667 29.3332 98.667C27.8604 98.667 26.6665 99.8609 26.6665 101.334C26.6665 102.806 27.8604 104 29.3332 104Z" fill="#BEC6C6"></path><path d="M29.3332 93.3333C30.8059 93.3333 31.9998 92.1394 31.9998 90.6667C31.9998 89.1939 30.8059 88 29.3332 88C27.8604 88 26.6665 89.1939 26.6665 90.6667C26.6665 92.1394 27.8604 93.3333 29.3332 93.3333Z" fill="#BEC6C6"></path><path d="M29.3332 82.6673C30.8059 82.6673 31.9998 81.4734 31.9998 80.0007C31.9998 78.5279 30.8059 77.334 29.3332 77.334C27.8604 77.334 26.6665 78.5279 26.6665 80.0007C26.6665 81.4734 27.8604 82.6673 29.3332 82.6673Z" fill="#BEC6C6"></path><path d="M29.3332 72.0003C30.8059 72.0003 31.9998 70.8064 31.9998 69.3337C31.9998 67.8609 30.8059 66.667 29.3332 66.667C27.8604 66.667 26.6665 67.8609 26.6665 69.3337C26.6665 70.8064 27.8604 72.0003 29.3332 72.0003Z" fill="#BEC6C6"></path><path d="M53.3332 114.667C54.8059 114.667 55.9998 113.473 55.9998 112.001C55.9998 110.528 54.8059 109.334 53.3332 109.334C51.8604 109.334 50.6665 110.528 50.6665 112.001C50.6665 113.473 51.8604 114.667 53.3332 114.667Z" fill="#BEC6C6"></path><path d="M53.3332 104C54.8059 104 55.9998 102.806 55.9998 101.334C55.9998 99.8609 54.8059 98.667 53.3332 98.667C51.8604 98.667 50.6665 99.8609 50.6665 101.334C50.6665 102.806 51.8604 104 53.3332 104Z" fill="#BEC6C6"></path><path d="M53.3332 93.3333C54.8059 93.3333 55.9998 92.1394 55.9998 90.6667C55.9998 89.1939 54.8059 88 53.3332 88C51.8604 88 50.6665 89.1939 50.6665 90.6667C50.6665 92.1394 51.8604 93.3333 53.3332 93.3333Z" fill="#BEC6C6"></path><path d="M77.3332 114.667C78.8059 114.667 79.9998 113.473 79.9998 112.001C79.9998 110.528 78.8059 109.334 77.3332 109.334C75.8604 109.334 74.6665 110.528 74.6665 112.001C74.6665 113.473 75.8604 114.667 77.3332 114.667Z" fill="#BEC6C6"></path><path d="M77.3332 104C78.8059 104 79.9998 102.806 79.9998 101.334C79.9998 99.8609 78.8059 98.667 77.3332 98.667C75.8604 98.667 74.6665 99.8609 74.6665 101.334C74.6665 102.806 75.8604 104 77.3332 104Z" fill="#BEC6C6"></path><path d="M77.3332 93.3333C78.8059 93.3333 79.9998 92.1394 79.9998 90.6667C79.9998 89.1939 78.8059 88 77.3332 88C75.8604 88 74.6665 89.1939 74.6665 90.6667C74.6665 92.1394 75.8604 93.3333 77.3332 93.3333Z" fill="#BEC6C6"></path><path d="M77.3332 82.6673C78.8059 82.6673 79.9998 81.4734 79.9998 80.0007C79.9998 78.5279 78.8059 77.334 77.3332 77.334C75.8604 77.334 74.6665 78.5279 74.6665 80.0007C74.6665 81.4734 75.8604 82.6673 77.3332 82.6673Z" fill="#BEC6C6"></path><path d="M77.3332 72.0003C78.8059 72.0003 79.9998 70.8064 79.9998 69.3337C79.9998 67.8609 78.8059 66.667 77.3332 66.667C75.8604 66.667 74.6665 67.8609 74.6665 69.3337C74.6665 70.8064 75.8604 72.0003 77.3332 72.0003Z" fill="#BEC6C6"></path><path d="M77.3332 61.3333C78.8059 61.3333 79.9998 60.1394 79.9998 58.6667C79.9998 57.1939 78.8059 56 77.3332 56C75.8604 56 74.6665 57.1939 74.6665 58.6667C74.6665 60.1394 75.8604 61.3333 77.3332 61.3333Z" fill="#BEC6C6"></path><path d="M101.333 114.667C102.806 114.667 104 113.473 104 112.001C104 110.528 102.806 109.334 101.333 109.334C99.8604 109.334 98.6665 110.528 98.6665 112.001C98.6665 113.473 99.8604 114.667 101.333 114.667Z" fill="#BEC6C6"></path><path d="M101.333 104C102.806 104 104 102.806 104 101.334C104 99.8609 102.806 98.667 101.333 98.667C99.8604 98.667 98.6665 99.8609 98.6665 101.334C98.6665 102.806 99.8604 104 101.333 104Z" fill="#BEC6C6"></path><path d="M101.333 93.3333C102.806 93.3333 104 92.1394 104 90.6667C104 89.1939 102.806 88 101.333 88C99.8604 88 98.6665 89.1939 98.6665 90.6667C98.6665 92.1394 99.8604 93.3333 101.333 93.3333Z" fill="#BEC6C6"></path><path d="M101.333 82.6673C102.806 82.6673 104 81.4734 104 80.0007C104 78.5279 102.806 77.334 101.333 77.334C99.8604 77.334 98.6665 78.5279 98.6665 80.0007C98.6665 81.4734 99.8604 82.6673 101.333 82.6673Z" fill="#BEC6C6"></path><path d="M101.333 72.0003C102.806 72.0003 104 70.8064 104 69.3337C104 67.8609 102.806 66.667 101.333 66.667C99.8604 66.667 98.6665 67.8609 98.6665 69.3337C98.6665 70.8064 99.8604 72.0003 101.333 72.0003Z" fill="#BEC6C6"></path><path d="M31.9998 37.3337C31.5453 37.3323 31.0986 37.2147 30.7022 36.9922C30.3059 36.7696 29.973 36.4494 29.7352 36.062C29.4974 35.6746 29.3626 35.2328 29.3436 34.7786C29.3246 34.3244 29.422 33.8729 29.6265 33.467L32.2932 28.1337C32.5148 27.6939 32.8538 27.3241 33.2727 27.0652C33.6917 26.8063 34.1741 26.6685 34.6665 26.667H47.9998C48.7071 26.667 49.3854 26.9479 49.8855 27.448C50.3856 27.9481 50.6665 28.6264 50.6665 29.3337C50.6665 30.0409 50.3856 30.7192 49.8855 31.2193C49.3854 31.7194 48.7071 32.0003 47.9998 32.0003H36.3198L34.3732 35.867C34.1516 36.3068 33.8125 36.6766 33.3936 36.9355C32.9747 37.1943 32.4923 37.3322 31.9998 37.3337Z" fill="#F97E20"></path><path d="M48 21.3333H34.6667C33.9594 21.3333 33.2811 21.0524 32.781 20.5523C32.281 20.0522 32 19.3739 32 18.6667C32 17.9594 32.281 17.2811 32.781 16.781C33.2811 16.281 33.9594 16 34.6667 16H48C48.7072 16 49.3855 16.281 49.8856 16.781C50.3857 17.2811 50.6667 17.9594 50.6667 18.6667C50.6667 19.3739 50.3857 20.0522 49.8856 20.5523C49.3855 21.0524 48.7072 21.3333 48 21.3333Z" fill="#F97E20"></path><path d="M79.9999 26.6667C79.5453 26.6653 79.0987 26.5477 78.7023 26.3252C78.3059 26.1026 77.9731 25.7824 77.7353 25.395C77.4975 25.0076 77.3627 24.5658 77.3436 24.1116C77.3246 23.6574 77.422 23.2059 77.6266 22.8L80.2932 17.4667C80.5148 17.0269 80.8539 16.6571 81.2728 16.3982C81.6917 16.1393 82.1741 16.0015 82.6666 16H95.9999C96.7072 16 97.3854 16.281 97.8855 16.781C98.3856 17.2811 98.6666 17.9594 98.6666 18.6667C98.6666 19.3739 98.3856 20.0522 97.8855 20.5523C97.3854 21.0524 96.7072 21.3333 95.9999 21.3333H84.3199L82.3732 25.2C82.1516 25.6398 81.8126 26.0096 81.3937 26.2685C80.9748 26.5273 80.4924 26.6652 79.9999 26.6667Z" fill="#F97E20"></path><path d="M96 10.6673H82.6667C81.9594 10.6673 81.2811 10.3864 80.781 9.88627C80.2809 9.38617 80 8.7079 80 8.00065C80 7.29341 80.2809 6.61513 80.781 6.11503C81.2811 5.61494 81.9594 5.33398 82.6667 5.33398H96C96.7072 5.33398 97.3855 5.61494 97.8856 6.11503C98.3857 6.61513 98.6667 7.29341 98.6667 8.00065C98.6667 8.7079 98.3857 9.38617 97.8856 9.88627C97.3855 10.3864 96.7072 10.6673 96 10.6673Z" fill="#F97E20"></path></svg>