<svg xmlns="http://www.w3.org/2000/svg" width="128" height="128" viewBox="0 0 128 128" fill="none"><path d="M44.213 38.134L10.2663 72.0807L5.33301 67.1473V21.334H27.3863L44.213 38.134Z" fill="#BEC6C6"></path><path d="M42.3199 100.374L38.5332 104.134C38.0471 104.668 37.4575 105.099 36.8002 105.398C36.1428 105.698 35.4314 105.861 34.7091 105.878C33.9869 105.894 33.2688 105.764 32.5984 105.494C31.9281 105.225 31.3194 104.822 30.8095 104.31C30.2995 103.798 29.8989 103.188 29.6318 102.517C29.3647 101.846 29.2369 101.127 29.2559 100.405C29.275 99.6828 29.4405 98.972 29.7426 98.3157C30.0447 97.6594 30.477 97.0713 31.0132 96.5871L34.6665 92.8271L42.3199 100.374Z" fill="#F8F9F9"></path><path d="M49.8665 107.894L44.2131 113.574C43.2124 114.575 41.8551 115.137 40.4398 115.137C39.0245 115.137 37.6672 114.575 36.6665 113.574C35.6657 112.573 35.1035 111.216 35.1035 109.801C35.1035 108.385 35.6657 107.028 36.6665 106.027L42.3198 100.374L49.8665 107.894Z" fill="#F8F9F9"></path><path d="M57.4132 115.44L53.6265 119.227C53.131 119.722 52.5427 120.115 51.8953 120.384C51.2479 120.652 50.554 120.79 49.8532 120.79C49.1524 120.79 48.4585 120.652 47.8111 120.384C47.1637 120.115 46.5754 119.722 46.0799 119.227C45.5844 118.731 45.1913 118.143 44.9231 117.496C44.6549 116.848 44.5169 116.154 44.5169 115.454C44.5169 114.753 44.6549 114.059 44.9231 113.411C45.1913 112.764 45.5844 112.176 46.0799 111.68L49.8665 107.894L57.4132 115.44Z" fill="#F8F9F9"></path><path d="M113.973 70.2138C107.547 76.6138 106.587 77.1738 105.84 79.5205C104.213 84.3738 105.333 82.5871 95.1732 92.8538L97.0399 94.7205C97.961 95.7334 98.4573 97.0617 98.426 98.4304C98.3948 99.7991 97.8384 101.103 96.872 102.073C95.9056 103.043 94.6033 103.604 93.2347 103.64C91.8661 103.676 90.536 103.185 89.5199 102.267L91.3866 104.16C92.1279 104.906 92.6323 105.855 92.8362 106.886C93.0402 107.918 92.9346 108.987 92.5328 109.958C92.131 110.93 91.4508 111.762 90.5779 112.348C89.7049 112.934 88.6781 113.249 87.6266 113.254C86.9247 113.258 86.2289 113.123 85.579 112.858C84.9292 112.592 84.3382 112.201 83.8399 111.707L79.9999 108C80.9091 109.026 81.3886 110.362 81.339 111.732C81.2894 113.101 80.7144 114.399 79.7334 115.356C78.7524 116.313 77.4406 116.856 76.0702 116.872C74.6997 116.887 73.3759 116.375 72.3732 115.44L70.4799 113.574C71.0382 114.052 71.4916 114.64 71.8118 115.302C72.1319 115.964 72.3118 116.684 72.3401 117.419C72.3685 118.153 72.2448 118.886 71.9766 119.57C71.7085 120.255 71.3018 120.876 70.782 121.396C70.2623 121.916 69.6407 122.322 68.9563 122.591C68.2719 122.859 67.5394 122.982 66.8049 122.954C66.0704 122.926 65.3497 122.746 64.688 122.426C64.0264 122.106 63.438 121.652 62.9599 121.094C21.3332 79.2538 23.7599 82.3471 22.8532 79.7071C21.2265 74.9071 22.1332 76.4005 14.0266 68.3205L44.2132 38.1338L49.8666 43.7871C60.8266 43.7871 60.5332 43.0671 65.4399 48.0805C67.3066 47.4138 67.5999 47.5738 76.2666 47.5738L83.7866 40.0005L113.973 70.2138Z" fill="#F8F9F9"></path><path d="M122.667 21.334V69.0406L117.733 73.974L83.7866 40.0273L102.48 21.334H122.667Z" fill="#BEC6C6"></path><path d="M63.9999 16.0003C63.4725 16.0003 62.9569 15.8439 62.5184 15.5509C62.0798 15.2579 61.738 14.8414 61.5362 14.3541C61.3344 13.8669 61.2816 13.3307 61.3844 12.8134C61.4873 12.2961 61.7413 11.821 62.1143 11.448C62.4872 11.0751 62.9623 10.8211 63.4796 10.7182C63.9969 10.6153 64.5331 10.6681 65.0204 10.87C65.5076 11.0718 65.9241 11.4136 66.2171 11.8521C66.5101 12.2907 66.6665 12.8062 66.6665 13.3337C66.6665 14.0409 66.9475 14.7192 67.4476 15.2193C67.9477 15.7194 68.626 16.0003 69.3332 16.0003C73.7599 16.0003 72.5599 8.00033 66.6665 5.81366V5.33366C66.6665 4.62641 66.3856 3.94814 65.8855 3.44804C65.3854 2.94794 64.7071 2.66699 63.9999 2.66699C63.2926 2.66699 62.6144 2.94794 62.1143 3.44804C61.6142 3.94814 61.3332 4.62641 61.3332 5.33366V5.81366C59.5696 6.4536 58.0869 7.69305 57.1445 9.31534C56.202 10.9376 55.8598 12.8395 56.1775 14.6886C56.4952 16.5377 57.4527 18.2163 58.8826 19.431C60.3124 20.6456 62.1238 21.3191 63.9999 21.3337C64.5273 21.3337 65.0429 21.4901 65.4814 21.7831C65.9199 22.0761 66.2617 22.4926 66.4636 22.9798C66.6654 23.4671 66.7182 24.0033 66.6153 24.5206C66.5124 25.0378 66.2584 25.513 65.8855 25.8859C65.5126 26.2589 65.0374 26.5129 64.5201 26.6158C64.0028 26.7186 63.4667 26.6658 62.9794 26.464C62.4921 26.2622 62.0756 25.9204 61.7826 25.4818C61.4896 25.0433 61.3332 24.5277 61.3332 24.0003C61.3332 23.2931 61.0523 22.6148 60.5522 22.1147C60.0521 21.6146 59.3738 21.3337 58.6665 21.3337C54.2399 21.3337 55.4399 29.3337 61.3332 31.5203V32.0003C61.3332 32.7076 61.6142 33.3858 62.1143 33.8859C62.6144 34.386 63.2926 34.667 63.9999 34.667C64.7071 34.667 65.3854 34.386 65.8855 33.8859C66.3856 33.3858 66.6665 32.7076 66.6665 32.0003V31.5203C68.4302 30.8804 69.9128 29.6409 70.8553 28.0186C71.7977 26.3964 72.14 24.4944 71.8223 22.6454C71.5046 20.7963 70.5471 19.1177 69.1172 17.903C67.6873 16.6884 65.876 16.0149 63.9999 16.0003Z" fill="#F97E20"></path><path d="M124.56 67.1474C124.312 66.8975 124.017 66.6991 123.692 66.5637C123.367 66.4284 123.019 66.3587 122.667 66.3587C122.315 66.3587 121.966 66.4284 121.641 66.5637C121.316 66.6991 121.021 66.8975 120.773 67.1474L117.733 70.1874L87.5732 40.0008L104.373 23.2008C104.623 22.9529 104.822 22.6579 104.957 22.333C105.092 22.008 105.162 21.6595 105.162 21.3075C105.162 20.9554 105.092 20.6069 104.957 20.2819C104.822 19.957 104.623 19.662 104.373 19.4141C103.874 18.9175 103.198 18.6387 102.493 18.6387C101.789 18.6387 101.113 18.9175 100.613 19.4141L75.1465 44.8808C72.1779 44.6822 69.1976 44.7447 66.2399 45.0674L65.3865 44.2141C64.3952 43.2239 63.2185 42.4387 61.9236 41.9033C60.6287 41.368 59.2411 41.093 57.8399 41.0941H50.9599L29.3332 19.4408C28.8336 18.9441 28.1577 18.6653 27.4532 18.6653C26.7487 18.6653 26.0728 18.9441 25.5732 19.4408C25.3233 19.6887 25.1249 19.9836 24.9895 20.3086C24.8541 20.6335 24.7844 20.9821 24.7844 21.3341C24.7844 21.6862 24.8541 22.0347 24.9895 22.3597C25.1249 22.6846 25.3233 22.9796 25.5732 23.2275L40.4799 38.1341L10.2665 68.3208L7.22654 65.2808C6.72793 64.7786 6.05027 64.4951 5.34263 64.4926C4.635 64.4901 3.95535 64.7688 3.45321 65.2675C2.95106 65.7661 2.66756 66.4437 2.66506 67.1514C2.66256 67.859 2.94126 68.5386 3.43987 69.0408C8.77321 74.3741 8.77321 74.7475 10.2665 74.7475C11.7599 74.7475 11.9732 74.1341 14.0265 72.0808C18.5599 76.6141 19.1199 76.9074 19.6532 78.4808C21.4665 83.8141 20.5865 82.4008 31.0132 92.8274L29.1199 94.6941C28.1393 95.6837 27.434 96.9121 27.074 98.258C26.714 99.6038 26.7117 101.02 27.0673 102.367C27.4229 103.714 28.1241 104.945 29.1015 105.938C30.0789 106.931 31.2986 107.651 32.6399 108.027C32.3475 109.342 32.3914 110.708 32.7676 112.001C33.1438 113.293 33.8401 114.47 34.792 115.422C35.7439 116.374 36.9207 117.07 38.2133 117.446C39.5059 117.823 40.8725 117.867 42.1865 117.574C42.5631 118.915 43.2834 120.135 44.2762 121.112C45.2689 122.09 46.4997 122.791 47.8467 123.147C49.1937 123.502 50.6102 123.5 51.956 123.14C53.3018 122.78 54.5303 122.075 55.5199 121.094L57.4132 119.227L61.1732 122.987C62.1628 123.968 63.3912 124.673 64.7371 125.033C66.0829 125.393 67.4994 125.396 68.8464 125.04C70.1934 124.684 71.4242 123.983 72.4169 123.006C73.4097 122.028 74.13 120.809 74.5065 119.467C76.3254 119.874 78.2293 119.634 79.8895 118.786C81.5497 117.939 82.862 116.539 83.5999 114.827C84.944 115.589 86.4798 115.945 88.0219 115.853C89.564 115.761 91.0464 115.224 92.2901 114.307C93.5337 113.391 94.4854 112.134 95.0301 110.688C95.5749 109.243 95.6894 107.67 95.3599 106.161C96.7011 105.784 97.9208 105.064 98.8982 104.071C99.8756 103.078 100.577 101.848 100.932 100.501C101.288 99.1536 101.286 97.7371 100.926 96.3913C100.566 95.0455 99.8605 93.817 98.8799 92.8274C105.253 86.4541 106.64 85.5475 107.68 82.4541C108.987 78.5075 108.213 79.7875 113.973 73.9741L115.867 75.8408C116.366 76.3375 117.042 76.6162 117.747 76.6162C118.451 76.6162 119.127 76.3375 119.627 75.8408L124.56 70.9341C124.81 70.6862 125.008 70.3913 125.144 70.0663C125.279 69.7414 125.349 69.3928 125.349 69.0408C125.349 68.6887 125.279 68.3402 125.144 68.0152C125.008 67.6903 124.81 67.3953 124.56 67.1474ZM32.8799 98.4808L34.7732 96.5874L38.5332 100.374L36.6665 102.241C36.4186 102.491 36.1237 102.689 35.7987 102.824C35.4738 102.96 35.1252 103.03 34.7732 103.03C34.4212 103.03 34.0726 102.96 33.7477 102.824C33.4227 102.689 33.1278 102.491 32.8799 102.241C32.3832 101.741 32.1044 101.065 32.1044 100.361C32.1044 99.6563 32.3832 98.9804 32.8799 98.4808ZM38.5332 111.814C38.2833 111.566 38.0849 111.271 37.9495 110.946C37.8141 110.621 37.7444 110.273 37.7444 109.921C37.7444 109.569 37.8141 109.22 37.9495 108.895C38.0849 108.57 38.2833 108.275 38.5332 108.027L42.3199 104.267L46.0799 108.027L42.3199 111.814C42.0633 112.056 41.7614 112.244 41.4316 112.368C41.1019 112.492 40.7508 112.549 40.3987 112.537C40.0466 112.525 39.7005 112.442 39.3803 112.296C39.0601 112.149 38.7722 111.94 38.5332 111.681V111.814ZM51.7332 117.334C51.3588 117.701 50.8846 117.95 50.3699 118.048C49.8551 118.147 49.3225 118.092 48.8388 117.89C48.3551 117.688 47.9417 117.348 47.6502 116.913C47.3587 116.477 47.202 115.965 47.1999 115.441C47.1999 114.134 47.7865 113.734 49.8665 111.681L53.6265 115.441L51.7332 117.334ZM95.1199 100.374C94.872 100.624 94.577 100.822 94.2521 100.958C93.9271 101.093 93.5786 101.163 93.2265 101.163C92.8745 101.163 92.526 101.093 92.201 100.958C91.876 100.822 91.5811 100.624 91.3332 100.374L74.3732 83.3874C73.8711 82.8888 73.1914 82.6101 72.4838 82.6126C71.7761 82.6151 71.0985 82.8986 70.5999 83.4008C70.1013 83.9029 69.8226 84.5826 69.8251 85.2902C69.8276 85.9978 70.1111 86.6755 70.6132 87.1741L89.4665 106.027C89.9632 106.527 90.242 107.203 90.242 107.907C90.242 108.612 89.9632 109.288 89.4665 109.787C89.2186 110.037 88.9237 110.236 88.5987 110.371C88.2738 110.507 87.9252 110.576 87.5732 110.576C87.2212 110.576 86.8726 110.507 86.5477 110.371C86.2227 110.236 85.9278 110.037 85.6799 109.787L66.8265 90.9341C66.5875 90.655 66.2933 90.4282 65.9625 90.2682C65.6316 90.1081 65.2713 90.0182 64.904 90.004C64.5368 89.9898 64.1705 90.0517 63.8283 90.1857C63.4861 90.3198 63.1754 90.5232 62.9155 90.783C62.6556 91.0429 62.4522 91.3537 62.3182 91.6959C62.1841 92.0381 62.1222 92.4043 62.1364 92.7716C62.1506 93.1388 62.2405 93.4992 62.4006 93.83C62.5607 94.1609 62.7874 94.455 63.0665 94.6941L78.1332 109.787C78.3831 110.035 78.5815 110.33 78.7169 110.655C78.8523 110.98 78.922 111.329 78.922 111.681C78.922 112.033 78.8523 112.381 78.7169 112.706C78.5815 113.031 78.3831 113.326 78.1332 113.574C77.6336 114.071 76.9577 114.35 76.2532 114.35C75.5487 114.35 74.8728 114.071 74.3732 113.574L57.3865 96.5874C56.8869 96.0908 56.211 95.812 55.5065 95.812C54.802 95.812 54.1262 96.0908 53.6265 96.5874C53.3766 96.8354 53.1782 97.1303 53.0428 97.4552C52.9075 97.7802 52.8377 98.1287 52.8377 98.4808C52.8377 98.8328 52.9075 99.1814 53.0428 99.5063C53.1782 99.8313 53.3766 100.126 53.6265 100.374L68.7199 115.441C68.967 115.69 69.1626 115.985 69.2953 116.31C69.428 116.635 69.4952 116.983 69.4932 117.334C69.4963 117.864 69.3416 118.382 69.0488 118.824C68.756 119.265 68.3383 119.609 67.8492 119.812C67.36 120.016 66.8214 120.068 66.3021 119.964C65.7827 119.86 65.3062 119.604 64.9332 119.227C23.0399 77.3341 25.9732 80.6141 25.3865 78.8808C23.6532 73.6808 23.9465 74.4541 17.8132 68.2141L44.2132 41.8141C48.3465 45.9475 48.4532 46.3474 49.8665 46.3474H57.8665C59.0819 46.3559 60.258 46.7793 61.1999 47.5475C60.0532 48.5608 64.8532 43.8141 42.3465 66.2141C41.8499 66.7138 41.5711 67.3896 41.5711 68.0941C41.5711 68.7986 41.8499 69.4745 42.3465 69.9741C43.6743 71.7273 45.3806 73.1582 47.3383 74.1601C49.296 75.162 51.4546 75.7092 53.6532 75.7608C60.0532 75.7608 62.9065 72.0541 66.8532 68.1074L95.1465 96.3741C95.4286 96.6262 95.6538 96.9355 95.8072 97.2814C95.9606 97.6273 96.0386 98.0018 96.0361 98.3801C96.0335 98.7585 95.9505 99.1319 95.7926 99.4757C95.6346 99.8195 95.4053 100.126 95.1199 100.374ZM102.613 80.7475C102.08 82.3475 101.733 82.4274 95.1199 89.0408L77.0132 70.9608C79.6349 70.6459 82.201 69.973 84.6399 68.9608C84.9731 68.8495 85.281 68.6734 85.5459 68.4427C85.8108 68.212 86.0276 67.9313 86.1837 67.6166C86.3398 67.3019 86.4322 66.9595 86.4556 66.6089C86.479 66.2584 86.4328 65.9067 86.3199 65.5741C86.0737 64.927 85.5854 64.401 84.9583 64.1073C84.3313 63.8137 83.6146 63.7755 82.9599 64.0008L79.2265 65.2274C77.4192 65.8431 75.4749 65.937 73.6166 65.4983C71.7583 65.0597 70.0612 64.1063 68.7199 62.7475C68.472 62.4975 68.177 62.2991 67.8521 62.1637C67.5271 62.0284 67.1786 61.9587 66.8265 61.9587C66.4745 61.9587 66.126 62.0284 65.801 62.1637C65.476 62.2991 65.1811 62.4975 64.9332 62.7475L59.2799 68.4274C57.7799 69.9256 55.7466 70.7671 53.6265 70.7671C51.5065 70.7671 49.4732 69.9256 47.9732 68.4274C65.7865 50.5874 64.8265 51.2541 66.4532 50.6674C67.0345 50.4565 67.6481 50.3482 68.2665 50.3474C76.9332 50.3474 77.1199 50.5875 78.1332 49.5475L83.7865 43.8941L110.187 70.2941C104 76.4541 104.293 75.6808 102.613 80.7475Z" fill="#414141"></path></svg>