<svg xmlns="http://www.w3.org/2000/svg" width="128" height="128" viewBox="0 0 128 128" fill="none"><path d="M117.333 26.667H90.6667V122.667H117.333V26.667Z" fill="#F8F9F9"></path><path d="M90.6667 42.667H64.0001V122.667H90.6667V42.667Z" fill="#F8F9F9"></path><path d="M64.0001 58.667H37.3334V122.667H64.0001V58.667Z" fill="#F8F9F9"></path><path d="M53.3333 112H16V122.667H53.3333V112Z" fill="#BEC6C6"></path><path d="M90.6668 101.334H53.3335V112.001H90.6668V101.334Z" fill="#BEC6C6"></path><path d="M90.6668 112H53.3335V122.667H90.6668V112Z" fill="#BEC6C6"></path><path d="M90.6667 125.334H53.3334C52.6262 125.334 51.9479 125.053 51.4478 124.553C50.9477 124.053 50.6667 123.375 50.6667 122.667V112.001C50.6667 111.293 50.9477 110.615 51.4478 110.115C51.9479 109.615 52.6262 109.334 53.3334 109.334H90.6667C91.374 109.334 92.0523 109.615 92.5524 110.115C93.0525 110.615 93.3334 111.293 93.3334 112.001V122.667C93.3334 123.375 93.0525 124.053 92.5524 124.553C92.0523 125.053 91.374 125.334 90.6667 125.334ZM56.0001 120.001H88.0001V114.667H56.0001V120.001Z" fill="#414141"></path><path d="M79.7867 4.32033C79.5867 3.83334 79.247 3.41647 78.8104 3.12225C78.3738 2.82803 77.8599 2.66962 77.3334 2.66699H66.6667C65.9595 2.66699 65.2812 2.94794 64.7811 3.44804C64.281 3.94814 64.0001 4.62641 64.0001 5.33366C64.0001 6.0409 64.281 6.71918 64.7811 7.21928C65.2812 7.71937 65.9595 8.00033 66.6667 8.00033H70.9067L48.7734 30.107C48.5248 30.3556 48.3275 30.6508 48.193 30.9757C48.0584 31.3005 47.9892 31.6487 47.9892 32.0003C47.9892 32.7105 48.2713 33.3915 48.7734 33.8937C49.2756 34.3958 49.9566 34.6779 50.6667 34.6779C51.0184 34.6779 51.3665 34.6086 51.6914 34.4741C52.0163 34.3395 52.3114 34.1423 52.5601 33.8937L74.6667 11.7603V16.0003C74.6667 16.7076 74.9477 17.3858 75.4478 17.8859C75.9479 18.386 76.6262 18.667 77.3334 18.667C78.0407 18.667 78.7189 18.386 79.219 17.8859C79.7191 17.3858 80.0001 16.7076 80.0001 16.0003C80.0001 4.45366 80.0001 5.01366 79.7867 4.32033Z" fill="#414141"></path><path d="M122.667 120H120V26.667C120 25.9597 119.719 25.2815 119.219 24.7814C118.719 24.2813 118.041 24.0003 117.333 24.0003H90.6667C89.9595 24.0003 89.2812 24.2813 88.7811 24.7814C88.281 25.2815 88.0001 25.9597 88.0001 26.667V40.0003H64.0001C63.2928 40.0003 62.6146 40.2813 62.1145 40.7814C61.6144 41.2815 61.3334 41.9597 61.3334 42.667V56.0003H37.3334C36.6262 56.0003 35.9479 56.2813 35.4478 56.7814C34.9477 57.2815 34.6667 57.9597 34.6667 58.667V109.334H16.0001C15.2928 109.334 14.6146 109.615 14.1145 110.115C13.6144 110.615 13.3334 111.293 13.3334 112V120H8.00008V5.33366C8.00008 4.62641 7.71913 3.94814 7.21903 3.44804C6.71894 2.94794 6.04066 2.66699 5.33341 2.66699C4.62617 2.66699 3.94789 2.94794 3.4478 3.44804C2.9477 3.94814 2.66675 4.62641 2.66675 5.33366V122.667C2.66675 123.374 2.9477 124.053 3.4478 124.553C3.94789 125.053 4.62617 125.334 5.33341 125.334H122.667C123.374 125.334 124.052 125.053 124.552 124.553C125.052 124.053 125.333 123.374 125.333 122.667C125.333 121.96 125.052 121.281 124.552 120.781C124.052 120.281 123.374 120 122.667 120ZM88.0001 109.334H56.0001V104H88.0001V109.334ZM66.6667 45.3337H88.0001V98.667H66.6667V45.3337ZM40.0001 61.3337H61.3334V98.667H53.3334C52.6262 98.667 51.9479 98.9479 51.4478 99.448C50.9477 99.9481 50.6667 100.626 50.6667 101.334V109.334H40.0001V61.3337ZM18.6667 120V114.667H50.6667V120H18.6667ZM56.0001 120V114.667H88.0001V120H56.0001ZM93.3334 120V29.3337H114.667V120H93.3334Z" fill="#414141"></path><path d="M34.6668 109.334C46.4488 109.334 56.0001 99.7824 56.0001 88.0003C56.0001 76.2183 46.4488 66.667 34.6668 66.667C22.8847 66.667 13.3334 76.2183 13.3334 88.0003C13.3334 99.7824 22.8847 109.334 34.6668 109.334Z" fill="#F97E20"></path><path d="M34.6667 85.3333C34.1393 85.3333 33.6237 85.1769 33.1852 84.8839C32.7466 84.5909 32.4048 84.1744 32.203 83.6872C32.0012 83.1999 31.9484 82.6637 32.0513 82.1464C32.1542 81.6291 32.4081 81.154 32.7811 80.781C33.154 80.4081 33.6292 80.1541 34.1464 80.0512C34.6637 79.9483 35.1999 80.0012 35.6872 80.203C36.1744 80.4048 36.5909 80.7466 36.8839 81.1851C37.177 81.6237 37.3334 82.1392 37.3334 82.6667C37.3334 83.3739 37.6143 84.0522 38.1144 84.5523C38.6145 85.0524 39.2928 85.3333 40 85.3333C44.4267 85.3333 43.2267 77.3333 37.3334 75.1467V74.6667C37.3334 73.9594 37.0524 73.2811 36.5523 72.781C36.0522 72.2809 35.3739 72 34.6667 72C33.9594 72 33.2812 72.2809 32.7811 72.781C32.281 73.2811 32 73.9594 32 74.6667V75.1467C30.2364 75.7866 28.7537 77.0261 27.8113 78.6484C26.8689 80.2706 26.5266 82.1726 26.8443 84.0216C27.162 85.8707 28.1195 87.5493 29.5494 88.764C30.9793 89.9786 32.7906 90.6521 34.6667 90.6667C35.1941 90.6667 35.7097 90.8231 36.1482 91.1161C36.5867 91.4091 36.9285 91.8256 37.1304 92.3128C37.3322 92.8001 37.385 93.3363 37.2821 93.8536C37.1792 94.3709 36.9252 94.846 36.5523 95.219C36.1794 95.5919 35.7042 95.8459 35.1869 95.9488C34.6696 96.0517 34.1335 95.9988 33.6462 95.797C33.1589 95.5952 32.7424 95.2534 32.4494 94.8148C32.1564 94.3763 32 93.8608 32 93.3333C32 92.6261 31.7191 91.9478 31.219 91.4477C30.7189 90.9476 30.0406 90.6667 29.3334 90.6667C24.9067 90.6667 26.1067 98.6667 32 100.853V101.333C32 102.041 32.281 102.719 32.7811 103.219C33.2812 103.719 33.9594 104 34.6667 104C35.3739 104 36.0522 103.719 36.5523 103.219C37.0524 102.719 37.3334 102.041 37.3334 101.333V100.853C39.097 100.213 40.5796 98.9739 41.5221 97.3517C42.4645 95.7294 42.8068 93.8274 42.4891 91.9784C42.1714 90.1293 41.2139 88.4507 39.784 87.236C38.3541 86.0214 36.5428 85.3479 34.6667 85.3333Z" fill="#F8F9F9"></path></svg>